<svg width="70" height="70" viewBox="0 0 70 70" fill="none" xmlns="http://www.w3.org/2000/svg">
<g clip-path="url(#clip0_1599_6992)">
<path d="M9.18387 64.3658L7.00254 6.70886C6.93049 4.80467 8.40234 3.1909 10.3195 3.07204L59.7568 0.00695843C61.7083 -0.11403 63.3891 1.35718 63.5111 3.293C63.5157 3.36593 63.518 3.43899 63.518 3.51207V66.3395C63.518 68.2791 61.9329 69.8514 59.9777 69.8514C59.9247 69.8514 59.8717 69.8503 59.8188 69.8479L12.5628 67.7425C10.7224 67.6605 9.25296 66.192 9.18387 64.3658Z" fill="#FF4785"/>
<mask id="mask0_1599_6992" style="mask-type:luminance" maskUnits="userSpaceOnUse" x="7" y="0" width="57" height="70">
<path d="M9.18387 64.3658L7.00254 6.70886C6.93049 4.80467 8.40234 3.1909 10.3195 3.07204L59.7568 0.00695843C61.7083 -0.11403 63.3891 1.35718 63.5111 3.293C63.5157 3.36593 63.518 3.43899 63.518 3.51207V66.3395C63.518 68.2791 61.9329 69.8514 59.9777 69.8514C59.9247 69.8514 59.8717 69.8503 59.8188 69.8479L12.5628 67.7425C10.7224 67.6605 9.25296 66.192 9.18387 64.3658Z" fill="white"/>
</mask>
<g mask="url(#mask0_1599_6992)">
<path d="M48.734 8.58586L49.0717 0.529166L55.8609 0L56.1534 8.30859C56.1636 8.59774 55.9355 8.84034 55.644 8.85044C55.5192 8.85476 55.3969 8.81506 55.2988 8.7384L52.6807 6.69244L49.5808 9.02501C49.3485 9.19987 49.0172 9.15475 48.8409 8.92423C48.7667 8.8272 48.7289 8.70755 48.734 8.58586ZM40.0512 26.328C40.0512 27.6943 49.3291 27.0395 50.5746 26.0797C50.5746 16.7752 45.5417 11.8858 36.3256 11.8858C27.1094 11.8858 21.9458 16.8512 21.9458 24.2994C21.9458 37.2717 39.5937 37.52 39.5937 44.5957C39.5937 46.5819 38.6133 47.7612 36.4563 47.7612C33.6457 47.7612 32.5345 46.3373 32.6653 41.496C32.6653 40.4458 21.9458 40.1183 21.619 41.496C20.7868 53.2283 28.1552 56.6123 36.587 56.6123C44.7573 56.6123 51.1629 52.2922 51.1629 44.4716C51.1629 30.5683 33.2535 30.9407 33.2535 24.0511C33.2535 21.2581 35.3451 20.8857 36.587 20.8857C37.8943 20.8857 40.2473 21.1142 40.0512 26.328Z" fill="white"/>
</g>
</g>
<defs>
<clipPath id="clip0_1599_6992">
<rect width="56.6292" height="70" fill="white" transform="translate(7)"/>
</clipPath>
</defs>
</svg>
